# xmcd CD database file
#
# Track frame offsets:
#	150
#	15566
#	32441
#	50523
#	71632
#	89973
#	107402
#	128378
#	144613
#	162849
#	179686
#
# Disc length: 2734 seconds
#
# Revision: 1
# Processed by: cddbd v1.5.2PL0 Copyright (c) Steve Scherf et al.
# Submitted via: CDex 1.51
#
DISCID=910aac0b
DTITLE=Madjo - Invisible World
DYEAR=2014
DGENRE=Pop
TTITLE0=Choose The Heart
TTITLE1=leave The Child
TTITLE2=Shine
TTITLE3=Fugue For An Old Man
TTITLE4=He Overview Effect
TTITLE5=Ego Stolen
TTITLE6=Bloody Afternoon
TTITLE7=Mockingbird
TTITLE8=Briefness Life
TTITLE9=Human Song
TTITLE10=Windy Time
EXTD=YEAR: 2014
EXTT0=
EXTT1=
EXTT2=
EXTT3=
EXTT4=
EXTT5=
EXTT6=
EXTT7=
EXTT8=
EXTT9=
EXTT10=
PLAYORDER=
